<?xml version="1.0" standalone="no"?>
<!DOCTYPE svg PUBLIC "-//W3C//DTD SVG 20010904//EN"
 "http://www.w3.org/TR/2001/REC-SVG-20010904/DTD/svg10.dtd">
<svg version="1.0" xmlns="http://www.w3.org/2000/svg"
 width="225.000000pt" height="225.000000pt" viewBox="0 0 225.000000 225.000000"
 preserveAspectRatio="xMidYMid meet">

<g transform="translate(0.000000,225.000000) scale(0.100000,-0.100000)"
fill="#000000" stroke="none">
<path d="M0 1125 l0 -1125 1125 0 1125 0 0 1125 0 1125 -1125 0 -1125 0 0
-1125z m278 69 c35 -10 26 -19 -20 -19 -32 0 -43 -4 -46 -17 -2 -12 5 -19 25
-24 55 -12 63 -16 73 -34 15 -27 -13 -50 -60 -50 -21 0 -41 4 -44 8 -3 5 16 8
42 8 40 -1 47 2 47 19 0 15 -11 23 -47 33 -40 11 -48 17 -48 37 0 35 31 51 78
39z m187 -4 c4 -6 -13 -10 -44 -10 -48 0 -51 -2 -51 -25 0 -22 4 -25 43 -27
l42 -1 -42 -4 c-40 -4 -43 -6 -43 -33 0 -28 2 -29 53 -33 l52 -3 -57 -2 -58
-2 0 75 0 75 49 0 c28 0 53 -4 56 -10z m167 -50 l4 65 2 -77 c1 -47 -2 -78 -8
-78 -5 0 -10 3 -10 8 0 4 -22 31 -48 60 l-47 53 3 -60 c3 -39 0 -61 -7 -61 -7
0 -11 28 -11 78 l1 77 59 -65 59 -65 3 65z m142 54 c29 -11 17 -20 -23 -16
-22 2 -42 -1 -46 -7 -10 -17 14 -41 40 -41 13 0 33 -8 45 -18 19 -16 21 -22
11 -40 -9 -18 -21 -22 -56 -22 -24 0 -46 4 -49 8 -3 5 16 8 42 8 40 -1 47 2
47 19 0 15 -11 23 -47 33 -41 11 -48 17 -48 38 0 32 45 53 84 38z m184 -21
c17 -24 15 -83 -5 -105 -20 -22 -70 -23 -95 -1 -34 30 -20 111 22 126 23 9 64
-2 78 -20z m147 17 c36 -14 43 -39 16 -61 l-23 -19 22 -30 c12 -16 17 -30 11
-30 -5 0 -18 14 -28 30 -12 22 -25 30 -45 30 -23 0 -27 -5 -31 -32 -2 -18 -5
2 -5 45 l-2 77 29 0 c16 0 41 -4 56 -10z m105 -49 c9 -15 11 -15 20 0 5 9 19
27 31 40 18 20 17 17 -5 -23 -14 -26 -26 -60 -26 -77 0 -17 -4 -31 -10 -31 -5
0 -10 15 -10 33 0 18 -11 48 -25 69 -14 20 -25 41 -25 45 1 8 34 -29 50 -56z
m138 28 c37 -66 37 -66 67 -15 15 26 32 45 39 43 6 -2 12 -33 14 -75 2 -60 0
-72 -13 -72 -11 0 -15 11 -15 48 l0 47 -19 -31 c-29 -48 -39 -49 -63 -7 l-23
38 -3 -47 c-2 -34 -7 -48 -18 -48 -11 0 -14 15 -14 68 0 38 3 72 7 75 13 13
24 7 41 -24z m192 -44 c0 -60 -3 -75 -15 -75 -12 0 -15 14 -15 68 0 38 3 72 7
75 17 18 23 1 23 -68z m114 23 l46 -53 0 53 c0 38 4 52 13 50 8 -3 13 -30 15
-76 3 -64 1 -72 -15 -72 -10 0 -34 22 -53 47 l-35 47 -3 -47 c-2 -33 -7 -47
-18 -47 -11 0 -14 16 -14 75 0 41 4 75 9 75 5 0 30 -24 55 -52z m231 32 c10
-8 15 -30 15 -61 0 -57 -15 -69 -84 -69 l-46 0 0 68 c0 38 3 72 8 76 10 11 89
1 107 -14z m151 4 c18 -15 17 -15 -13 -10 -39 6 -63 -1 -63 -19 0 -15 22 -25
54 -25 42 0 59 -36 30 -64 -17 -18 -81 -21 -104 -6 -17 11 -13 12 45 14 51 1
55 27 6 37 -63 13 -80 58 -29 79 34 13 52 12 74 -6z"/>
<path d="M867 1174 c-12 -12 -8 -89 5 -102 16 -16 53 -15 67 2 7 8 11 34 9 58
-3 41 -4 43 -38 46 -20 2 -39 0 -43 -4z"/>
<path d="M1030 1155 c0 -25 3 -26 43 -23 34 2 42 7 42 23 0 16 -8 21 -42 23
-40 3 -43 2 -43 -23z"/>
<path d="M1800 1120 l0 -51 33 3 c31 3 32 5 32 48 0 43 -1 45 -32 48 l-33 3 0
-51z"/>
</g>
</svg>
